<?xml version="1.0" encoding="utf-8"?>
<!-- Generator: Adobe Illustrator 27.5.0, SVG Export Plug-In . SVG Version: 6.00 Build 0)  -->
<svg version="1.1" xmlns="http://www.w3.org/2000/svg" xmlns:xlink="http://www.w3.org/1999/xlink" x="0px" y="0px"
	 viewBox="0 0 500 500" style="enable-background:new 0 0 500 500;" xml:space="preserve">
<g id="BACKGROUND">
</g>
<g id="OBJECTS">
	<g>
		<path style="opacity:0.28;fill:#553B5C;" d="M411.053,453.44c0.009,1.932-33.473,3.659-74.783,3.857
			c-41.311,0.198-74.808-1.208-74.817-3.14c-0.009-1.932,33.473-3.659,74.784-3.857C377.547,450.102,411.044,451.508,411.053,453.44
			z"/>
		<g>
			<path style="fill:#6069A3;" d="M286.701,438.821c0,0,0.835,8.55,0,12.376c0,0-2.004,0.819-7.349,2.656
				c-5.345,1.837-19.709,5.011-24.386,4.677c-4.677-0.334-7.172-7.207,23.12-19.413L286.701,438.821z"/>
			<path style="fill:#A86E49;" d="M318.453,123.727c2.004,2.621,2.151,6.027,2.117,9.205c-0.025,2.318-0.294,4.634-0.804,6.895
				c-0.487,2.159-1.235,3.976-0.632,6.209c1.019,3.778,3.811,3.972,6.271,7.695c3.463,5.241,2.868,12.326,1.373,16.629
				c-3.416,9.83-14.895,14.806-24.292,14.498c-13.852-0.454-25.826-12.475-25.38-21.172c0.207-4.041,3.095-7.344,1.751-13.236
				c-0.813-3.564-2.279-4.153-3.035-6.727c-2.187-7.448,5.037-19.702,16.062-23.605
				C300.367,117.116,313.237,116.909,318.453,123.727z"/>
			<g>
				<path style="fill:#C48D55;" d="M316.742,138.255c-1.865,2.389-3.536,4.92-4.934,7.58c-0.652,1.35-1.329,2.695-1.761,4.123
					c-0.267,0.698-0.389,1.433-0.571,2.15c-0.087,0.731-0.236,1.46-0.194,2.192c-0.063,0.737,0.102,1.447,0.192,2.169
					c0.198,0.717,0.371,1.443,0.636,2.142c0.486,1.411,1.122,2.771,1.836,4.09c0.716,1.318,1.532,2.586,2.426,3.8
					c0.876,1.228,1.842,2.393,2.879,3.499c-2.289-1.997-4.223-4.397-5.806-7.013c-0.809-1.301-1.443-2.707-1.978-4.146
					c-0.283-0.716-0.475-1.463-0.689-2.203c-0.115-0.777-0.3-1.557-0.244-2.342c-0.03-0.79,0.136-1.553,0.241-2.323
					c0.199-0.746,0.341-1.514,0.626-2.229c0.48-1.466,1.157-2.848,1.902-4.181C312.829,142.916,314.639,140.446,316.742,138.255z"/>
			</g>
			<g>
				<path style="fill:#C48D55;" d="M316.382,146.675c-0.598,0.855-1.176,1.719-1.686,2.62c-0.531,0.886-1.005,1.807-1.373,2.757
					c-0.349,0.949-0.667,1.93-0.629,2.893c0.027,0.475,0.131,0.936,0.371,1.317c0.221,0.358,0.594,0.766,0.931,1.157
					c1.324,1.612,2.672,3.202,3.973,4.833c1.3,1.631,2.59,3.269,3.814,4.958c-1.465-1.491-2.862-3.033-4.251-4.582
					c-1.388-1.549-2.728-3.139-4.092-4.707c-0.329-0.407-0.666-0.766-0.992-1.298c-0.3-0.507-0.417-1.096-0.434-1.656
					c-0.005-1.128,0.333-2.178,0.781-3.139C313.695,149.898,314.952,148.195,316.382,146.675z"/>
			</g>
			<g>
				<path style="fill:#C48D55;" d="M285.685,164.278c0.473,0.809,0.705,1.811,0.55,2.794c-0.134,0.991-0.628,1.874-1.188,2.655
					c-0.582,0.774-1.275,1.447-2.042,2.007c-0.759,0.568-1.587,1.04-2.467,1.379c0.732-0.59,1.421-1.206,2.091-1.828
					c0.663-0.628,1.291-1.286,1.816-2.006c0.526-0.713,0.993-1.48,1.219-2.328C285.887,166.105,285.889,165.206,285.685,164.278z"/>
			</g>
			<path style="fill:#F7C5AA;" d="M274.756,195.865c0,0-19.987-33.348-24.139-55.372c0,0,3.966-9.656,8.199-13.189l23.888,53.05
				C282.704,180.354,288.803,203.042,274.756,195.865z"/>
			<path style="fill:#F7C5AA;" d="M258.411,88.88c-0.419,0.067-0.784,0.04-1.004,0.131c-2.016,0.832-2.472,4.214-2.702,6.033
				c-1.048,8.279-1.908,16.582-2.579,24.9c-0.431,5.345-3.431,16.812-1.09,21.754c1.339,2.825,5.252,10.847,9.48,8.529
				c4.07-2.231,2.818-14.785,2.823-18.755c0.01-8.178-1.068-22.136-1.059-30.314C262.285,96.478,263.84,88.011,258.411,88.88z"/>
			<g>
				<g>
					<path style="fill:#F7C5AA;" d="M262.081,93.935l3.874-7.349l-2.872-7.908c0,0-6.619-2.971-11.161,3.299l3.094,11.11
						L262.081,93.935z"/>
				</g>
				<path style="fill:#F7C5AA;" d="M263.083,81.014c0,0,2.375-11.342,1.195-12.988c-1.948-2.717-4.172,12.988-4.172,12.988H263.083z
					"/>
				<path style="fill:#F7C5AA;" d="M257.612,80.515c0,0-1.546-11.484-3.207-12.643c-2.743-1.912,0.401,13.636,0.401,13.636
					L257.612,80.515z"/>
				<path style="fill:#F7C5AA;" d="M256.419,85.739c0,0-3.559-11.028-5.4-11.873c-3.039-1.395,2.814,13.348,2.814,13.348
					L256.419,85.739z"/>
				<path style="fill:#F7C5AA;" d="M260.264,80.02c0,0,0.176-13.3-1.275-14.988c-2.395-2.786-1.607,15.462-1.607,15.462
					L260.264,80.02z"/>
				<path style="fill:#F7C5AA;" d="M263.525,89.979c0,0,4.661-7.018,7.27-8.471c2.609-1.453-0.852-2.67-3.406-0.494
					c-2.555,2.176-4.306,0-4.306,0L263.525,89.979z"/>
				<g>
					<path style="fill:#1E1A4D;" d="M263.516,82.329c-0.647,0.168-1.207,0.515-1.696,0.922c-0.484,0.418-0.905,0.905-1.263,1.439
						c-0.38,0.52-0.669,1.102-0.978,1.679l-0.816,1.811c0.041-0.333,0.115-0.659,0.172-0.992c0.087-0.324,0.192-0.644,0.289-0.968
						c0.235-0.633,0.527-1.253,0.922-1.814c0.39-0.56,0.861-1.083,1.444-1.46C262.164,82.571,262.836,82.291,263.516,82.329z"/>
				</g>
			</g>
			<path style="fill:#F7C5AA;" d="M321.643,192.799c0,0,19.62-32.736,23.697-54.357c0,0-3.893-9.479-8.049-12.947l-23.45,52.077
				C313.841,177.572,307.853,199.845,321.643,192.799z"/>
			<path style="fill:#F7C5AA;" d="M337.688,87.775c0.411,0.066,0.769,0.039,0.985,0.128c1.979,0.817,2.427,4.137,2.653,5.923
				c1.029,8.127,1.873,16.278,2.532,24.443c0.424,5.248,3.368,16.504,1.07,21.355c-1.314,2.773-5.155,10.648-9.306,8.373
				c-3.996-2.19-2.767-14.514-2.771-18.411c-0.009-8.028,1.048-21.73,1.039-29.758C333.885,95.234,332.359,86.922,337.688,87.775z"
				/>
			<path style="fill:#F7C5AA;" d="M390.997,378.573l11.435,3.141c0,0,2.449-4.041-2.155-7.773
				c-3.605-2.922-6.649-5.349-11.149-6.734c-0.918-0.283-5.802-1.47-6.254-0.622C382.418,367.44,390.997,378.573,390.997,378.573z"
				/>
			<path style="fill:#6069A3;" d="M271.851,353.578c1.04-14.12-4.293-63.15,2.651-98.982l38.56-8.96c0,0-3.861,53.014-20.808,109.85
				c0,0,5.018,18.227,3.277,28.179c-5.48,31.317-6.333,39.939-8.854,55.155c-2.545,1.76-1.6,2.189-8.23,1.722
				C273.701,418.936,269.534,385.045,271.851,353.578z"/>
			<path style="fill:#6069A3;" d="M293.728,250.201c21.064-4.534,34.297-8.759,34.297-8.759
				c23.193,26.388,12.428,101.262,12.428,101.262c33.493,4.165,52.82,26.245,52.82,26.245l-2.276,9.624l-67.055-20.987
				c-2.802-0.802-5.165-2.755-6.37-5.409c-0.642-1.414-1.108-2.909-1.383-4.451L293.728,250.201z"/>
			<g>
				<path style="fill:#F7C5AA;" d="M320.03,160.442l-8.832,7.731c-0.813,0.712-1.885,1.12-2.957,0.981
					c-1.44-0.188-2.289-1.359-2.6-5.988c-1.321-19.672-1.354-40.186-1.354-40.186l-14.61,25.175
					c1.812,5.458,1.485,11.216,0.93,18.27c-0.314,3.996-3.041,4.355-5.416,5.296c-4.052,1.604-3.467,16.562,0.672,19.461
					c0.085,0.066,15.122,3.434,15.228,3.433C321.069,194.452,320.03,160.442,320.03,160.442z"/>
			</g>
			<path style="opacity:0.28;fill:#553B5C;" d="M289.4,160.058c0.274-4.281,0.118-8.358-1.007-11.747l15.895-25.331
				c0,0,0.031,19.103,1.22,38.117c-2.076,2.618-4.63,4.173-7.642,4.038C293.994,164.96,291.29,162.943,289.4,160.058z"/>
			<g>
				<path style="fill:#F7C5AA;" d="M281.121,133.415c0,0-4.756,28.565,12.909,29.186c12.483,0.439,17.65-14.872,15.525-29.456
					c-1.171-8.033-3.923-14.525-11.9-14.292C289.992,119.076,283.516,122.394,281.121,133.415z"/>
			</g>
			<path style="fill:#ED82A8;" d="M323.885,213.721l5.301-22.507l4.525-10.686c-0.041-13.501-8.093-29.028-8.093-29.028
				L312.081,167.4c0,0,1.785,13.815-16.278,14.878c-6.116,0.36-11.782-2.438-10.612-10.558h0c-0.012,0.001-0.023,0.004-0.035,0.005
				l-13.513-15.875c0,0-8.053,15.527-8.093,29.028l6.61,8.841c-0.95,4.551-1.311,9.18-0.917,13.205l1.811,18.492l0.361,34.69
				c0,0,41.898,15.293,72.25-16.615C343.665,243.492,321.057,223.972,323.885,213.721z"/>
			<g>
				<g>
					<path style="fill:#F7C5AA;" d="M313.825,146.621c-1.499,2.691-4.382,3.944-6.441,2.798c-2.058-1.146-2.511-4.258-1.013-6.949
						c1.499-2.691,4.383-3.944,6.441-2.798C314.87,140.819,315.324,143.93,313.825,146.621z"/>
				</g>
			</g>
			<g>
				<path style="fill:#A86E49;" d="M286.143,136.69c-0.142-0.362-0.439-0.643-0.768-0.855c-0.33-0.219-0.717-0.334-1.102-0.397
					c-0.389-0.055-0.78-0.033-1.155,0.044c-0.186,0.045-0.368,0.102-0.549,0.155c-0.173,0.086-0.348,0.154-0.51,0.254
					c0.384,0.012,0.743-0.013,1.1-0.007c0.355,0.02,0.703,0.014,1.041,0.074C284.879,136.053,285.525,136.255,286.143,136.69z"/>
				<path style="fill:#A86E49;" d="M301.697,138.255c-0.142-0.362-0.439-0.643-0.768-0.855c-0.33-0.219-0.716-0.334-1.101-0.397
					c-0.389-0.055-0.78-0.033-1.155,0.044c-0.186,0.044-0.368,0.102-0.549,0.154c-0.173,0.086-0.348,0.154-0.51,0.254
					c0.384,0.012,0.743-0.013,1.1-0.007c0.355,0.02,0.703,0.013,1.041,0.074C300.433,137.618,301.079,137.82,301.697,138.255z"/>
			</g>
			<path style="fill:#1E1A4D;" d="M296.136,149.184c-0.981,1.006-2.169,1.674-3.437,2.1c-0.64,0.198-1.297,0.342-1.972,0.433
				c-0.675,0.098-1.361,0.111-2.067,0.157c0.339,0.092,0.685,0.159,1.035,0.226c0.352,0.02,0.707,0.072,1.063,0.061
				c0.716,0.012,1.429-0.126,2.121-0.328c0.681-0.239,1.338-0.563,1.9-1.017C295.34,150.37,295.84,149.831,296.136,149.184z"/>
			<path style="fill:#1E1A4D;" d="M305.071,300.072c-0.71-3.156-1.561-6.271-2.495-9.36c-0.927-3.091-1.927-6.159-2.999-9.202
				l-0.064-0.183l-0.154-0.095l-4.084-2.523l-4.08-2.566c2.346,2.221,5.251,4.041,7.925,5.851l-0.218-0.277
				c0.926,3.088,1.933,6.191,3.005,9.23C302.973,293.99,303.783,297.098,305.071,300.072z"/>
			<g>
				<path style="fill:#1E1A4D;" d="M311.764,141.643c-1.029,0.915-1.733,2.13-1.728,3.424l-0.15-0.229
					c0.339,0.165,0.631,0.36,0.897,0.623c0.253,0.261,0.488,0.605,0.511,1.008c0.027,0.399-0.14,0.767-0.364,1.04
					c-0.24,0.265-0.513,0.476-0.809,0.646c0.111-0.132,0.222-0.258,0.335-0.379c0.096-0.136,0.197-0.267,0.274-0.407
					c0.163-0.275,0.243-0.579,0.184-0.852c-0.121-0.544-0.689-0.964-1.229-1.222l-0.153-0.073l0.003-0.156
					c0.013-0.73,0.223-1.468,0.643-2.055C310.585,142.419,311.13,141.934,311.764,141.643z"/>
			</g>
			<g>
				<path style="fill:#1E1A4D;" d="M288.623,144.141c-0.676-0.19-1.354-0.364-2.024-0.411c-0.654-0.055-1.367,0.071-1.562,0.594
					c-0.207,0.497,0.108,1.177,0.434,1.746c0.345,0.585,0.769,1.139,1.201,1.694c-0.578-0.408-1.087-0.907-1.522-1.481
					c-0.218-0.288-0.41-0.6-0.543-0.959c-0.125-0.353-0.198-0.783-0.03-1.194c0.169-0.406,0.554-0.683,0.942-0.776
					c0.39-0.096,0.77-0.072,1.128-0.003C287.364,143.485,288.026,143.762,288.623,144.141z"/>
			</g>
			<g>
				<path style="fill:#1E1A4D;" d="M299.689,143.234c-0.876-0.282-1.675-0.443-2.388-0.225c-0.355,0.102-0.696,0.277-1.028,0.516
					c-0.33,0.241-0.652,0.527-1.011,0.828c0.049-0.227,0.143-0.437,0.221-0.662c0.121-0.197,0.227-0.414,0.389-0.592
					c0.302-0.377,0.74-0.662,1.229-0.813c0.495-0.137,1.031-0.103,1.483,0.082C299.038,142.545,299.425,142.85,299.689,143.234z"/>
			</g>
			<g>
				<path style="fill:#1E1A4D;" d="M285.764,143.124c-0.435-0.642-0.837-1.142-1.37-1.384c-0.262-0.127-0.554-0.208-0.882-0.254
					c-0.328-0.042-0.681-0.061-1.075-0.098c0.15-0.127,0.321-0.211,0.491-0.317c0.182-0.063,0.367-0.145,0.567-0.17
					c0.398-0.076,0.835-0.013,1.229,0.167C285.528,141.46,285.917,142.364,285.764,143.124z"/>
			</g>
			<g>
				<g>
					<path style="fill:#F7C5AA;" d="M334.086,92.738l-3.803-7.215l2.819-7.763c0,0,6.497-2.917,10.957,3.239l-3.037,10.906
						L334.086,92.738z"/>
				</g>
				<path style="fill:#F7C5AA;" d="M333.102,80.053c0,0-2.331-11.134-1.173-12.75c1.912-2.668,4.095,12.75,4.095,12.75H333.102z"/>
				<path style="fill:#F7C5AA;" d="M338.473,79.564c0,0,1.517-11.274,3.149-12.411c2.693-1.877-0.394,13.386-0.394,13.386
					L338.473,79.564z"/>
				<path style="fill:#F7C5AA;" d="M339.644,84.692c0,0,3.494-10.826,5.301-11.655c2.983-1.369-2.763,13.104-2.763,13.104
					L339.644,84.692z"/>
				<path style="fill:#F7C5AA;" d="M335.87,79.078c0,0-0.173-13.056,1.251-14.713c2.351-2.735,1.578,15.178,1.578,15.178
					L335.87,79.078z"/>
				<path style="fill:#F7C5AA;" d="M332.668,88.855c0,0-4.576-6.889-7.137-8.316c-2.561-1.427,0.836-2.621,3.344-0.485
					c2.508,2.136,4.227,0,4.227,0L332.668,88.855z"/>
				<g>
					<path style="fill:#1E1A4D;" d="M332.677,81.345c0.668-0.039,1.329,0.235,1.893,0.601c0.573,0.37,1.036,0.883,1.419,1.433
						c0.388,0.551,0.675,1.16,0.904,1.782c0.094,0.319,0.198,0.633,0.283,0.951c0.056,0.327,0.127,0.648,0.167,0.975l-0.804-1.776
						c-0.304-0.565-0.588-1.137-0.96-1.647c-0.35-0.524-0.764-1.001-1.238-1.412C333.86,81.853,333.312,81.512,332.677,81.345z"/>
				</g>
			</g>
			<path style="fill:#A86E49;" d="M302.532,128.967c0,0-13.195,8.132-22.206,4.132c-9.01-4.001-9.403-17.511-1.651-21.576
				c7.751-4.065,16.663,4.436,23.022,4.311c6.358-0.125,19.361,3.584,17.424,15.122c-0.806,4.799-8.345,8.292-8.345,8.292
				s-1.801,1.965-3.408,4.017C307.368,143.265,307.533,133.468,302.532,128.967z"/>
			<path style="fill:#F7C5AA;" d="M275.941,427.569c0.72,4.662,1.639,9.03,2.505,12.974c6.63,0.466,5.685,0.038,8.23-1.722
				c0.879-5.305,1.556-9.811,2.296-14.754C282.512,426.551,279.101,427.507,275.941,427.569z"/>
			<path style="fill:#F7C5AA;" d="M278.086,439.117c0,0-19.63,8.102-16.022,9.57c5.512,2.243,23.77-4.533,24.636-9.867
				L278.086,439.117z"/>
			<path style="fill:#6069A3;" d="M399.831,373.57c0,0,7.056-2.976,11.027-3.385c0,0,1.432,1.68,4.913,6.271
				c3.481,4.591,11.129,17.49,12.295,22.125c1.166,4.635-4.217,8.316-25.683-17.131L399.831,373.57z"/>
			<path style="fill:#F7C5AA;" d="M402.216,381.404c0,0,13.785,17.399,14.057,13.437c0.417-6.052-11.299-22.165-16.74-21.305
				L402.216,381.404z"/>
			<g>
				<path style="fill:#BD688B;" d="M322.896,190.581c-0.517,3.205-1.367,6.35-2.357,9.445c-0.988,3.098-2.21,6.121-3.589,9.073
					c-1.416,2.934-3.045,5.771-4.913,8.444c-1.9,2.652-4.069,5.112-6.529,7.23c1.036-1.256,2.182-2.391,3.1-3.725
					c1.024-1.243,1.891-2.605,2.791-3.935c1.692-2.735,3.27-5.536,4.649-8.444c1.384-2.905,2.616-5.881,3.768-8.894
					c0.576-1.507,1.114-3.029,1.614-4.565C321.969,193.684,322.43,192.135,322.896,190.581z"/>
			</g>
			<g>
				<path style="fill:#BD688B;" d="M273.192,191.892c0.118,1.553,0.238,3.101,0.425,4.643c0.157,1.543,0.345,3.082,0.578,4.612
					c0.465,3.06,1.021,6.103,1.815,9.08c0.775,2.98,1.798,5.894,3.191,8.624c0.707,1.359,1.544,2.651,2.534,3.819
					c0.967,1.191,2.128,2.224,3.443,3.062c-1.427-0.64-2.689-1.622-3.806-2.732c-1.095-1.137-2.032-2.421-2.843-3.775
					c-1.6-2.728-2.676-5.716-3.486-8.743c-0.785-3.038-1.322-6.131-1.609-9.242C273.143,198.131,273.009,195.005,273.192,191.892z"
					/>
			</g>
			<g>
				<path style="fill:#BD688B;" d="M286.591,218.532c1.19,0.419,2.418,0.675,3.654,0.803c0.619,0.06,1.233,0.131,1.854,0.119
					c0.618,0.031,1.236-0.01,1.851-0.064c2.459-0.205,4.858-0.847,7.118-1.82l1.678-0.777c0.545-0.289,1.064-0.627,1.602-0.931
					c1.108-0.563,2.041-1.398,3.09-2.07c0.993-0.749,1.917-1.59,2.887-2.384c0.909-0.86,1.796-1.747,2.737-2.596
					c-0.769,0.997-1.591,1.958-2.392,2.945c-0.912,0.876-1.794,1.796-2.75,2.635c-0.494,0.401-0.993,0.799-1.499,1.187
					c-0.255,0.192-0.499,0.4-0.763,0.579l-0.812,0.51c-0.546,0.334-1.085,0.682-1.645,0.991l-1.738,0.829
					c-2.364,0.992-4.905,1.64-7.479,1.667c-0.642,0.01-1.283,0.005-1.921-0.072c-0.639-0.037-1.27-0.149-1.898-0.266
					C288.927,219.522,287.693,219.159,286.591,218.532z"/>
			</g>
			<g>
				<path style="fill:#BD688B;" d="M317.265,219.812c-0.609,3.9-1.629,7.732-2.883,11.484c-1.277,3.745-2.859,7.399-4.826,10.858
					c-2.019,3.413-4.441,6.677-7.59,9.177c-1.566,1.249-3.345,2.243-5.23,2.904c-1.897,0.629-3.9,0.915-5.87,0.776
					c3.959-0.126,7.696-1.735,10.615-4.277c2.936-2.531,5.296-5.691,7.212-9.083c2.001-3.352,3.551-6.964,4.97-10.616
					c0.706-1.83,1.348-3.686,1.939-5.56C316.22,223.61,316.758,221.718,317.265,219.812z"/>
			</g>
			<g>
				<path style="fill:#C48D55;" d="M275.431,119.909c0.39,1.469,0.895,2.905,1.564,4.255c0.65,1.354,1.458,2.643,2.511,3.677
					c1.048,1.026,2.35,1.79,3.787,1.96c0.715,0.082,1.442,0.028,2.154-0.112c0.699-0.147,1.445-0.396,2.168-0.597
					c2.926-0.801,5.82-1.748,8.817-2.383c1.498-0.306,3.023-0.539,4.56-0.566c1.534-0.005,3.08,0.186,4.516,0.698
					c-2.979-0.727-6.036-0.305-8.948,0.43c-2.927,0.741-5.819,1.68-8.739,2.54c-0.744,0.194-1.444,0.422-2.236,0.579
					c-0.779,0.142-1.584,0.19-2.381,0.085c-1.598-0.22-3.062-1.075-4.11-2.235C276.979,125.906,275.941,122.89,275.431,119.909z"/>
			</g>
			<g>
				<path style="fill:#C48D55;" d="M278.222,119.729c-0.123,1.377,0.395,2.788,1.442,3.618c1.024,0.86,2.384,1.203,3.717,1.328
					c2.7,0.207,5.456-0.196,8.182-0.568c2.74-0.334,5.484-0.783,8.274-0.886c1.392-0.042,2.801-0.023,4.185,0.24
					c1.351,0.273,2.798,0.832,3.565,2.033c-0.9-1.086-2.288-1.519-3.624-1.673c-1.35-0.181-2.727-0.138-4.093-0.028
					c-2.736,0.224-5.464,0.657-8.206,1.055c-1.375,0.175-2.754,0.339-4.145,0.44c-1.389,0.088-2.796,0.164-4.204-0.035
					c-1.389-0.202-2.829-0.634-3.899-1.63C278.36,122.621,277.926,121.084,278.222,119.729z"/>
			</g>
			<g>
				<path style="fill:#C48D55;" d="M307.922,133.618c0.475,1.194,0.649,2.457,0.69,3.721c0.011,1.258-0.119,2.568-0.69,3.728
					l-0.06-3.714C307.846,136.122,307.812,134.893,307.922,133.618z"/>
			</g>
			<g>
				<path style="fill:#C48D55;" d="M310.098,130.498c0.326,0.752,0.487,1.558,0.591,2.363c0.106,0.807,0.13,1.624,0.079,2.442
					c-0.069,0.815-0.177,1.635-0.448,2.419c-0.255,0.783-0.649,1.535-1.199,2.137c0.583-1.516,0.798-3.038,0.899-4.605
					c0.064-0.78,0.072-1.567,0.087-2.358C310.103,132.104,310.139,131.305,310.098,130.498z"/>
			</g>
			<g>
				<path style="fill:#C48D55;" d="M295.279,118.017c1.753-0.434,3.557-0.628,5.364-0.718c1.808-0.085,3.63-0.024,5.432,0.248
					c1.793,0.293,3.59,0.706,5.251,1.487c1.654,0.777,3.186,1.843,4.336,3.241c-1.374-1.177-2.917-2.064-4.56-2.709
					c-1.652-0.63-3.388-1.008-5.137-1.277c-1.751-0.283-3.533-0.363-5.315-0.415C298.867,117.843,297.076,117.89,295.279,118.017z"
					/>
			</g>
			<g>
				<path style="fill:#A86E49;" d="M304.262,127.304c-0.499,0.962-1.169,1.822-1.905,2.611c-0.735,0.794-1.566,1.496-2.445,2.131
					c-0.885,0.627-1.836,1.168-2.841,1.58c-0.992,0.438-2.064,0.696-3.132,0.817c0.952-0.521,1.894-0.965,2.785-1.516
					c0.894-0.535,1.774-1.083,2.611-1.697C301.039,130.04,302.629,128.705,304.262,127.304z"/>
			</g>
		</g>
		<g>
			<path style="fill:#A86E49;" d="M318.452,126.298c1.355,1.891,2.345,4.046,2.946,6.335c0.302,1.146,0.433,2.345,0.402,3.552
				c-0.051,1.232-0.349,2.375-0.576,3.492c-0.477,2.241-0.923,4.496-0.555,6.692c0.353,2.204,1.73,4.142,3.432,5.703
				c-0.976-0.63-1.86-1.413-2.612-2.334c-0.727-0.938-1.268-2.041-1.559-3.214c-0.592-2.377-0.133-4.799,0.319-7.053
				c0.233-1.145,0.543-2.252,0.594-3.336c0.085-1.102-0.025-2.224-0.213-3.338c-0.196-1.114-0.501-2.217-0.884-3.296
				C319.396,128.409,318.941,127.351,318.452,126.298z"/>
		</g>
		<g>
			<path style="fill:#A86E49;" d="M278.722,130.874c-1.152,2.26-2.125,4.605-2.853,7.003c-0.35,1.202-0.618,2.426-0.721,3.652
				c-0.103,1.218-0.059,2.46,0.367,3.545c0.098,0.279,0.236,0.515,0.378,0.784l0.477,0.831c0.312,0.559,0.624,1.121,0.899,1.706
				c0.55,1.166,1.041,2.39,1.264,3.701c0.251,1.299,0.133,2.716-0.428,3.932c-0.562,1.225-1.583,2.135-2.674,2.769
				c0.952-0.844,1.746-1.847,2.144-2.987c0.414-1.14,0.348-2.368,0.088-3.543c-0.275-1.178-0.742-2.326-1.289-3.441
				c-0.276-0.557-0.557-1.115-0.858-1.666l-0.457-0.825c-0.153-0.29-0.322-0.612-0.426-0.936c-0.462-1.304-0.467-2.67-0.309-3.961
				c0.18-1.296,0.527-2.544,0.95-3.755C276.129,135.265,277.322,132.992,278.722,130.874z"/>
		</g>
		<g>
			<g>
				<path style="fill:#A86E49;" d="M317.251,122.98c-0.024-0.334,0.157-0.626,0.38-0.832c0.226-0.217,0.517-0.334,0.806-0.4
					c0.586-0.097,1.185,0.039,1.602,0.528c-0.289,0.159-0.535,0.235-0.767,0.299c-0.228,0.078-0.445,0.101-0.646,0.155
					C318.206,122.81,317.859,122.829,317.251,122.98z"/>
			</g>
			<g>
				<path style="fill:#A86E49;" d="M317.251,123.148c0.26-0.324,0.671-0.473,1.071-0.509c0.408-0.043,0.814,0.055,1.181,0.21
					c0.364,0.169,0.675,0.415,0.926,0.707c0.247,0.294,0.432,0.637,0.511,1.034c-0.392-0.123-0.701-0.279-1-0.426
					c-0.305-0.132-0.571-0.295-0.852-0.406C318.531,123.505,318.027,123.297,317.251,123.148z"/>
			</g>
		</g>
	</g>
	<g>
		<path style="fill:none;" d="M339.48,217.4"/>
	</g>
	<g>
		<path style="fill:#FFE240;" d="M188.487,84.107l-0.055-11.51l-4.611,0.022l0.055,11.51c0.009,1.797-1.441,3.261-3.238,3.27
			l-1.16,0.006c-1.456,0.007-2.63,1.193-2.623,2.649l0.01,1.975l18.711-0.09l-0.01-1.975c-0.007-1.456-1.193-2.63-2.649-2.623
			l-1.16,0.006C189.96,87.354,188.496,85.905,188.487,84.107z"/>
		<path style="fill:#F7C5AA;" d="M220.591,167.628c0,0,28.752-30.1,34.725-49.979c0,0-5.705-8.715-11.795-11.904l-34.364,47.883
			C209.158,153.627,200.383,174.106,220.591,167.628z"/>
		<path style="fill:#F7C5AA;" d="M219.05,79.604c0.191-1.464,0.982-2.836,2.335-3.354c1.4-0.536,2.979-0.043,4.32,0.627
			c4.333,2.163,7.206,5.942,10.346,9.473c3.505,3.942,7.02,7.84,10.32,11.961c2.512,3.138,4.95,6.336,7.308,9.592
			c0.478,0.66,2.831,3.053,2.771,3.926c-1.414,20.628-15.014,5.589-15.014,5.589s-13.692-20.147-13.692-20.147
			c-1.172-2.11-2.344-4.22-3.516-6.329c-1.61-2.899-6.095-9.038-6.731-12.273C217.389,78.118,218.977,80.168,219.05,79.604z"/>
		<path style="fill:#C9AC9F;" d="M225.83,128.967c0,0,11.098,18.535,11.16,31.494l-14.049,18.997l-18.465-28.811L225.83,128.967z"/>
		<path style="opacity:0.28;fill:#553B5C;" d="M266.26,453.996c0.009,1.932-33.472,3.659-74.783,3.857
			c-41.311,0.198-74.808-1.208-74.817-3.14c-0.009-1.932,33.473-3.659,74.783-3.857S266.25,452.064,266.26,453.996z"/>
		<path style="fill:#F7C5AA;" d="M155.28,167.941c0,0-29.039-29.823-35.203-49.644c0,0,5.621-8.769,11.68-12.017l34.821,47.551
			C166.579,153.831,175.549,174.225,155.28,167.941z"/>
		<polygon style="fill:#6069A3;" points="223.931,248.156 246.996,437.313 233.417,441.367 170.985,246.374 		"/>
		<g>
			<path style="fill:#1E1A4D;" d="M217.217,256.494c-0.274,1.965-0.411,3.943-0.388,5.913c0.036,1.966,0.215,3.941,0.771,5.814
				c0.53,1.867,1.49,3.643,3.011,4.854c1.529,1.207,3.522,1.69,5.496,1.761c-0.988,0.036-1.999,0.032-2.977-0.216
				c-0.974-0.24-1.92-0.645-2.751-1.238c-1.662-1.217-2.677-3.106-3.258-5.02c-0.533-1.947-0.72-3.961-0.674-5.955
				C216.503,260.41,216.741,258.423,217.217,256.494z"/>
		</g>
		<polygon style="fill:#6069A3;" points="156.807,248.477 135.496,437.847 149.231,441.77 209.733,246.188 		"/>
		<g>
			<path style="fill:#1E1A4D;" d="M165.547,256.741c0.606,2.049,0.938,4.185,0.975,6.337c0.029,2.146-0.259,4.336-1.109,6.352
				c-0.875,1.993-2.429,3.732-4.412,4.659c-1.974,0.942-4.177,1.186-6.301,1.089c1.066-0.057,2.13-0.145,3.161-0.392
				c1.043-0.187,2.035-0.573,2.967-1.04c1.865-0.96,3.318-2.591,4.128-4.515c0.852-1.915,1.132-4.046,1.184-6.153
				c0.026-1.058-0.025-2.119-0.129-3.176C165.918,258.842,165.774,257.784,165.547,256.741z"/>
		</g>
		<path style="fill:#C9AC9F;" d="M227.935,254.244l-4.586-31.274l1.527-24.988c0.913-13.723-1.104-30.921-5.215-42.592
			l-24.947-7.686l-16.967,0.346l-18.651,2.414l-10.605,11.609c-0.566,19.046,7.699,42.217,7.699,42.217l-4.809,51.507l8.631,2.135
			c20.813,5.148,42.646,4.41,63.064-2.133L227.935,254.244z"/>
		<path style="fill:#F7C5AA;" d="M178.114,148.284l-0.005-0.015l-2.906-23.72l14.762-4.267l5.238,30.242
			c0.368,2.701-2.417,4.343-5.815,4.868C184.445,156.156,179.718,153.021,178.114,148.284z"/>
		<path style="opacity:0.28;fill:#553B5C;" d="M190.023,119.735l-14.82,4.813l1.752,14.3c2.591,3.924,7.056,7.027,14.765,6.605
			c0.844-0.046,1.664-0.269,2.436-0.612L190.023,119.735z"/>
		<path style="fill:#F7C5AA;" d="M192.373,142.241c0.613-0.094,1.21-0.236,1.785-0.429c2.687-0.903,4.726-3.199,5.946-5.757
			c4.033-8.459,2.909-19.566,0.179-28.195c-1.447-4.573-4.503-4.59-8.159-5.817c-3.53-1.186-7.368-1.17-10.81,0.25
			c-3.982,1.644-6.783,4.756-7.267,10c0,0-0.865,4.933,0.039,9.149c0.402,1.872,0.086,4.034,0.428,5.968
			c0.688,3.899,2.206,7.807,5.07,10.629C182.668,141.077,187.924,142.922,192.373,142.241z"/>
		<path style="fill:#F7C5AA;" d="M176.746,121.432c1.821,2.542,1.716,5.735-0.234,7.132c-1.95,1.397-5.007,0.468-6.828-2.074
			c-1.821-2.542-1.716-5.735,0.234-7.132C171.868,117.961,174.925,118.889,176.746,121.432z"/>
		<g>
			<path style="fill:#1E1A4D;" d="M170.377,120.827c0.748,0.115,1.464,0.453,2.066,0.945c0.616,0.482,1.062,1.182,1.301,1.935
				l0.047,0.149l-0.125,0.114c-0.485,0.441-0.95,1.06-0.902,1.676c0.027,0.307,0.209,0.602,0.467,0.836
				c0.126,0.12,0.273,0.225,0.416,0.335c0.157,0.089,0.313,0.185,0.47,0.285c-0.359-0.09-0.708-0.226-1.038-0.43
				c-0.316-0.216-0.6-0.546-0.693-0.965c-0.098-0.422,0.037-0.849,0.22-1.197c0.195-0.353,0.438-0.647,0.738-0.922l-0.078,0.262
				C172.867,122.493,171.741,121.443,170.377,120.827z"/>
		</g>
		<path style="fill:#F7C5AA;" d="M155.977,79.906c-0.205-1.462-1.009-2.827-2.367-3.331c-1.405-0.522-2.979-0.014-4.313,0.668
			c-4.312,2.205-7.149,6.01-10.255,9.571c-3.467,3.975-6.945,7.907-10.204,12.059c-2.482,3.161-4.889,6.383-7.215,9.661
			c-0.472,0.665-2.801,3.08-2.733,3.952c1.611,20.614,15.067,5.445,15.067,5.445l13.498-20.278c1.152-2.121,2.303-4.242,3.455-6.363
			c1.582-2.914,5.768-7.936,6.373-11.178C157.384,79.564,156.056,80.47,155.977,79.906z"/>
		<g>
			<path style="fill:#1E1A4D;" d="M136.847,113.231c-0.797,0.412-1.645,0.715-2.505,0.973c-0.86,0.261-1.743,0.439-2.634,0.569
				c-1.778,0.241-3.626,0.222-5.355-0.266c0.897,0.033,1.777,0.071,2.659,0.02c0.88-0.056,1.757-0.114,2.629-0.249
				C133.388,114.043,135.113,113.669,136.847,113.231z"/>
		</g>
		<g>
			<path style="fill:#1E1A4D;" d="M248.755,113.713c-0.862,0.252-1.752,0.387-2.645,0.476c-0.894,0.092-1.795,0.097-2.694,0.055
				c-1.791-0.104-3.602-0.476-5.206-1.286c0.874,0.204,1.731,0.41,2.606,0.528c0.874,0.113,1.747,0.224,2.628,0.259
				C245.204,113.847,246.969,113.811,248.755,113.713z"/>
		</g>
		<g>
			<path style="fill:#1E1A4D;" d="M190.654,307.863c0.756-5.169,1.596-10.323,2.492-15.467c0.884-5.146,1.815-10.284,2.809-15.411
				l0.013-0.066l0.054-0.033l10.2-6.208l-10.044,6.458l0.067-0.099c-0.822,5.157-1.706,10.303-2.637,15.441
				C192.688,297.618,191.713,302.748,190.654,307.863z"/>
		</g>
		<path style="fill:#A86E49;" d="M195.491,113.873c0.205-0.338,0.551-0.569,0.917-0.725c0.368-0.163,0.776-0.212,1.172-0.208
			c0.399,0.011,0.787,0.101,1.15,0.243c0.179,0.077,0.352,0.166,0.524,0.249c0.159,0.116,0.322,0.214,0.468,0.342
			c-0.387-0.054-0.743-0.14-1.101-0.196c-0.359-0.041-0.707-0.107-1.056-0.105C196.868,113.451,196.185,113.543,195.491,113.873z"/>
		<path style="fill:#A86E49;" d="M179.719,115.503c0.151-0.365,0.458-0.646,0.796-0.855c0.339-0.217,0.735-0.327,1.127-0.383
			c0.396-0.049,0.793-0.019,1.173,0.066c0.189,0.049,0.373,0.111,0.555,0.167c0.174,0.091,0.351,0.163,0.514,0.268
			c-0.391,0.006-0.756-0.026-1.118-0.027c-0.362,0.014-0.715,0.001-1.06,0.056C181.016,114.877,180.355,115.072,179.719,115.503z"/>
		<g>
			<path style="fill:#1E1A4D;" d="M189.758,120.827c0.605-0.405,1.294-0.694,2.039-0.81c0.728-0.134,1.608,0.002,2.2,0.597
				c0.287,0.3,0.474,0.738,0.436,1.162c-0.038,0.419-0.203,0.791-0.427,1.096c-0.437,0.62-0.998,1.107-1.626,1.476
				c0.495-0.527,0.968-1.075,1.298-1.676c0.343-0.601,0.417-1.279-0.037-1.708c-0.439-0.454-1.12-0.6-1.806-0.565
				C191.145,120.427,190.447,120.608,189.758,120.827z"/>
		</g>
		<path style="fill:#1E1A4D;" d="M135.496,437.847c0,0-28.864,20.011-27.994,25.295c0.87,5.284,17.304-0.597,24.898-4.943
			c2.032-1.163,6.615-1.769,10.431-2.082c3.711-0.304,6.865-2.819,8.012-6.362c0.784-2.42-2.133-5.259-1.613-7.986L135.496,437.847z
			"/>
		<g>
			<path style="fill:#1E1A4D;" d="M181.191,120.083c0.562-0.687,1.626-1.036,2.571-0.659c0.454,0.194,0.845,0.513,1.095,0.905
				c0.137,0.187,0.215,0.406,0.31,0.608c0.05,0.225,0.117,0.435,0.138,0.658c-0.318-0.321-0.6-0.624-0.892-0.884
				c-0.294-0.259-0.6-0.458-0.926-0.59C182.835,119.843,182.062,119.912,181.191,120.083z"/>
		</g>
		<g>
			<path style="fill:#1E1A4D;" d="M199.727,119.155c-0.872-0.163-1.646-0.224-2.296,0.061c-0.325,0.135-0.629,0.337-0.92,0.598
				c-0.289,0.263-0.568,0.569-0.883,0.893c0.019-0.223,0.084-0.434,0.132-0.659c0.092-0.202,0.169-0.422,0.304-0.611
				c0.246-0.395,0.634-0.717,1.087-0.916C198.092,118.134,199.158,118.474,199.727,119.155z"/>
		</g>
		<path style="fill:#FFFFFF;" d="M183.06,125.898c0,0,5.423,2.911,10.032,2.064c0,0-2.393,4.643-6.542,3.414
			C182.182,130.083,183.06,125.898,183.06,125.898z"/>
		<g>
			<path style="fill:#AB8F82;" d="M216.221,177.33c0.244,3.43-0.142,6.899-0.903,10.269c-0.757,3.378-2.033,6.641-3.704,9.681
				c-0.788,1.55-1.836,2.946-2.818,4.374c-1.137,1.313-2.172,2.715-3.499,3.844c-0.648,0.575-1.223,1.229-1.927,1.736l-2.065,1.566
				c-0.672,0.542-1.445,0.939-2.186,1.376c-0.743,0.435-1.49,0.858-2.239,1.272c2.805-1.978,5.591-3.965,7.873-6.493
				c1.22-1.182,2.221-2.554,3.285-3.868c0.932-1.409,1.948-2.77,2.701-4.289c1.649-2.951,2.918-6.117,3.837-9.387l0.62-2.474
				c0.154-0.836,0.345-1.668,0.469-2.511C215.97,180.746,216.139,179.044,216.221,177.33z"/>
		</g>
		<g>
			<path style="fill:#AB8F82;" d="M165.14,171.685c0.235,2.755,0.586,5.495,1.047,8.215c0.44,2.723,0.971,5.429,1.607,8.109
				c1.254,5.362,2.844,10.648,4.948,15.727c2.044,5.1,4.613,9.99,7.74,14.507c3.116,4.525,6.887,8.596,11.197,12.064
				c-2.266-1.583-4.416-3.348-6.399-5.294c-1.941-1.982-3.791-4.07-5.424-6.323c-3.3-4.485-5.9-9.45-8.039-14.577
				c-2.049-5.167-3.669-10.502-4.771-15.939C165.948,182.738,165.21,177.221,165.14,171.685z"/>
		</g>
		<path style="fill:#F7C5AA;" d="M137.647,418.733l-2.151,19.115l13.735,3.923l6.247-20.195
			C145.452,422.426,142.479,421.641,137.647,418.733z"/>
		<path style="fill:#F7C5AA;" d="M233.417,441.367l13.579-4.054l-2.946-24.157c-2.869,6.148-11.786,7.789-17.311,7.357
			L233.417,441.367z"/>
		<path style="fill:#A86E49;" d="M174.87,119.808c0,0,1.006-2.994,0.265-9.518l-2.96-1.584l0.296,10.026L174.87,119.808z"/>
		<path style="fill:#A86E49;" d="M173.661,114.281c0,0,3.717-9.364,6.013-8.376c2.295,0.988,4.462,3.476,8.273,1.959
			c3.811-1.517,7.981,2.771,12.337-0.004c4.356-2.774,3.566-11.962-0.059-12.245c-3.625-0.282-7.797,4.833-11.401,3.252
			c-3.605-1.581-6.911-3.464-9.696-0.853c-2.785,2.611-3.083,5.839-4.469,5.716C170.728,103.384,169.399,109.605,173.661,114.281z"
			/>
		<path style="fill:#C9AC9F;" d="M149.671,129.332c0,0-10.92,18.64-10.858,31.599l14.23,18.862l18.188-28.987L149.671,129.332z"/>
		<g>
			<g>
				<g>
					<path style="fill:#F7C5AA;" d="M157.813,74.053c0,0,2.907,7.605-3.443,8.951c-6.35,1.346-10.259-3.599-9.883-10.423
						L157.813,74.053z"/>
					<g>
						<g>
							<path style="fill:#F7C5AA;" d="M158.118,79.816c0,0,3.913-12.955,0.194-15.63c-3.718-2.676-8.309,4.221-9.583,5.934
								c-1.273,1.712,3.81,1.668,7.145-0.365c0,0-6.397,12.218-2.613,11.954C157.044,81.443,158.118,79.816,158.118,79.816z"/>
						</g>
						<path style="fill:#1E1A4D;" d="M157.216,68.051c-0.368,0.281-0.616,0.553-0.875,0.833c-0.12,0.146-0.247,0.285-0.361,0.446
							c-0.115,0.162-0.243,0.314-0.354,0.526c0.469-0.01,0.867-0.264,1.157-0.585C157.061,68.94,157.268,68.522,157.216,68.051z"/>
					</g>
				</g>
			</g>
			<g>
				<g>
					<path style="fill:#F7C5AA;" d="M216.643,72.414c0,0-2.479,7.755,3.936,8.746c6.415,0.991,10.043-4.164,9.288-10.957
						L216.643,72.414z"/>
					<g>
						<g>
							<path style="fill:#F7C5AA;" d="M216.443,77.96c0,0-4.412-12.491-0.849-15.369c3.564-2.878,8.531,3.752,9.898,5.391
								c1.367,1.639-3.712,1.877-7.154,0.033c0,0,7.067,11.843,3.275,11.79C217.821,79.751,216.443,77.96,216.443,77.96z"/>
						</g>
						<path style="fill:#1E1A4D;" d="M216.904,66.389c0.383,0.26,0.645,0.518,0.92,0.783c0.128,0.14,0.263,0.271,0.385,0.425
							c0.124,0.155,0.26,0.3,0.383,0.506c-0.469,0.016-0.88-0.215-1.188-0.52C217.108,67.268,216.879,66.862,216.904,66.389z"/>
					</g>
				</g>
				<path style="fill:#1E1A4D;" d="M221.847,74.314c-0.541-0.854-0.999-1.705-1.478-2.549l-0.709-1.268l-0.737-1.284
					c0.774,0.627,1.378,1.473,1.871,2.34C221.272,72.432,221.667,73.356,221.847,74.314z"/>
			</g>
			<path style="fill:#FFE240;" d="M158.337,47.773l55.334-1.541c0,0-0.936,35.315-26.685,36.033
				C161.236,82.982,158.337,47.773,158.337,47.773z"/>
			<path style="fill:#FFE240;" d="M205.093,78.613c-1.478,0.041-8.459,0.161-8.612,0.153l6.112-5.275
				c3.956,0.212,15.167-0.462,19.416-6.034c1.191-1.562,1.734-3.386,1.659-5.577c-0.058-1.69-0.508-2.949-1.416-3.962
				c-2.63-2.933-8.282-2.803-10.237-2.505l-0.518-5.076c0.891-0.14,8.838-1.213,13.261,3.705c1.738,1.933,2.713,4.591,2.819,7.687
				c0.124,3.637-0.811,6.788-2.779,9.367C219.974,77.418,209.879,78.48,205.093,78.613z"/>
			<path style="opacity:0.28;fill:#553B5C;" d="M224.127,62.332l-0.495,0.511c-0.097,1.763-0.613,3.29-1.622,4.614
				c-1.101,1.444-2.674,2.553-4.462,3.409c0.021,1.592-0.155,4.02-1.179,5.854c3.227-1.116,6.329-2.87,8.43-5.624
				c0.268-0.351,0.513-0.716,0.743-1.088L224.127,62.332z"/>
			<path style="fill:#FFE240;" d="M169.754,79.597c1.478-0.041,8.923-0.323,9.075-0.34l-6.865-4.913
				c-3.938,0.432-15.169,0.383-19.722-4.944c-1.276-1.494-1.92-3.285-1.967-5.476c-0.036-1.691,0.343-2.973,1.193-4.034
				c2.463-3.075,8.113-3.26,10.082-3.071l0.234-5.097c-0.897-0.09-8.892-0.719-13.034,4.437c-1.628,2.027-2.453,4.735-2.387,7.832
				c0.078,3.638,1.187,6.733,3.296,9.198C154.83,79.232,164.968,79.731,169.754,79.597z"/>
			<path style="opacity:0.28;fill:#553B5C;" d="M155.642,71.979c-1.321-0.679-2.495-1.522-3.399-2.579
				c-0.546-0.639-0.952-1.345-1.269-2.1l-1.113,1.286l-0.374,4.379c0.06,0.074,0.113,0.152,0.175,0.224
				c1.777,2.077,4.144,3.488,6.675,4.454C155.824,75.869,155.679,73.439,155.642,71.979z"/>
			<path style="fill:#E8BA3A;" d="M213.671,46.232c0.027,0.964-12.338,2.09-27.619,2.516c-15.28,0.426-27.689-0.011-27.716-0.975
				c-0.027-0.964,12.338-2.09,27.619-2.516C201.235,44.832,213.644,45.268,213.671,46.232z"/>
			<g>
				<g>
					<g>
						<path style="fill:#F7C5AA;" d="M227.459,53.89c0,0-2.898-1.515-7.426,2.724c-4.528,4.239-2.717,4.653,1.77,3.928
							C226.29,59.816,231.564,58.411,227.459,53.89z"/>
					</g>
					<g>
						<path style="fill:#F7C5AA;" d="M227.688,57.288c0,0-5.38,1.834-6.502,3.754c-3.307,5.663-1.429,6.688,2.758,4.728
							C228.133,63.808,234.431,63.811,227.688,57.288z"/>
					</g>
					<g>
						<path style="fill:#F7C5AA;" d="M228.403,62.522c0,0-3.206-2.236-5.451,4.18s-1.263,8.482,2.319,5.253
							C228.854,68.726,232.375,67.442,228.403,62.522z"/>
					</g>
					<g>
						<path style="fill:#F7C5AA;" d="M230.009,68.332c0,0-1.812-2.052-4.4,1.944c-2.589,3.995-2.262,5.564,0.71,3.958
							C229.29,72.629,231.898,72.337,230.009,68.332z"/>
					</g>
				</g>
				<path style="fill:#1E1A4D;" d="M228.483,58.102c-1.251,0.411-2.481,0.764-3.693,1.181c-1.216,0.41-2.384,0.878-3.556,1.48
					c0.445-0.49,0.988-0.883,1.558-1.223c0.573-0.335,1.186-0.593,1.808-0.814C225.854,58.319,227.161,58.059,228.483,58.102z"/>
				<path style="fill:#1E1A4D;" d="M229.263,63.638c-1.076,0.455-2.138,0.836-3.183,1.265c-1.051,0.422-2.056,0.882-3.077,1.448
					c0.359-0.465,0.818-0.844,1.302-1.177c0.487-0.329,1.016-0.588,1.554-0.816C226.947,63.937,228.09,63.645,229.263,63.638z"/>
				<path style="fill:#1E1A4D;" d="M229.232,68.43c-0.858,0.765-1.735,1.447-2.585,2.163c-0.859,0.711-1.669,1.436-2.47,2.26
					c0.202-0.542,0.523-1.031,0.879-1.485c0.359-0.453,0.779-0.851,1.213-1.226C227.161,69.422,228.139,68.801,229.232,68.43z"/>
			</g>
			<g>
				<g>
					<g>
						<path style="fill:#F7C5AA;" d="M145.982,56.159c0,0,2.81-1.674,7.566,2.306c4.757,3.981,2.972,4.495-1.548,4.02
							C147.479,62.011,142.134,60.901,145.982,56.159z"/>
					</g>
					<g>
						<path style="fill:#F7C5AA;" d="M145.942,59.565c0,0,5.474,1.531,6.7,3.386c3.617,5.471,1.8,6.598-2.491,4.874
							C145.861,66.1,139.573,66.453,145.942,59.565z"/>
					</g>
					<g>
						<path style="fill:#F7C5AA;" d="M145.52,64.83c0,0,3.076-2.411,5.675,3.87c2.599,6.281,1.733,8.399-2.023,5.374
							C145.415,71.05,141.828,69.964,145.52,64.83z"/>
					</g>
					<g>
						<path style="fill:#F7C5AA;" d="M144.24,70.721c0,0,1.695-2.149,4.502,1.696c2.807,3.845,2.568,5.429-0.488,3.992
							C145.197,74.971,142.576,74.825,144.24,70.721z"/>
					</g>
				</g>
				<path style="fill:#1E1A4D;" d="M145.194,60.421c1.272,0.34,2.52,0.625,3.753,0.973c1.237,0.342,2.429,0.744,3.633,1.28
					c-0.471-0.465-1.036-0.827-1.624-1.134c-0.591-0.302-1.217-0.526-1.851-0.712C147.831,60.492,146.512,60.305,145.194,60.421z"/>
				<path style="fill:#1E1A4D;" d="M144.723,65.992c1.099,0.395,2.181,0.716,3.248,1.086c1.073,0.362,2.102,0.766,3.153,1.274
					c-0.385-0.444-0.863-0.797-1.366-1.102c-0.505-0.302-1.047-0.531-1.597-0.729C147.052,66.162,145.895,65.934,144.723,65.992z"/>
				<path style="fill:#1E1A4D;" d="M145.021,70.775c0.899,0.716,1.813,1.348,2.701,2.016c0.897,0.662,1.746,1.341,2.591,2.119
					c-0.232-0.53-0.58-1-0.961-1.434c-0.384-0.433-0.825-0.807-1.279-1.157C147.144,71.65,146.133,71.085,145.021,70.775z"/>
			</g>
			<g>
				<path style="fill:#1E1A4D;" d="M229.683,72.54c-0.482,0.691-1.097,1.251-1.761,1.748c-0.341,0.237-0.691,0.467-1.079,0.637
					c-0.381,0.162-0.811,0.329-1.239,0.248c0.398-0.128,0.717-0.36,1.049-0.583l0.976-0.707
					C228.288,73.415,228.943,72.939,229.683,72.54z"/>
			</g>
			<g>
				<path style="fill:#1E1A4D;" d="M150.145,82.918c1.179,0.03,2.245-0.396,3.172-1.016c0.245-0.152,0.44-0.316,0.696-0.508
					c0.309-0.215,0.72-0.247,1.038-0.099c0.528,0.328,1.016,0.519,1.587,0.726c-0.297,0.004-0.59-0.036-0.887-0.087
					c-0.277-0.051-0.614-0.198-0.831-0.277c-0.228-0.053-0.466-0.02-0.627,0.119c-0.202,0.168-0.453,0.382-0.7,0.543
					c-0.507,0.329-1.068,0.595-1.669,0.707C151.331,83.138,150.7,83.146,150.145,82.918z"/>
			</g>
			<g>
				<path style="fill:#1E1A4D;" d="M144.466,74.554c0.594,0.541,1.101,1.117,1.624,1.679c0.517,0.572,1.027,1.115,1.601,1.674
					c-0.392-0.105-0.746-0.31-1.076-0.539c-0.332-0.229-0.62-0.509-0.894-0.798C145.195,75.975,144.738,75.314,144.466,74.554z"/>
			</g>
		</g>
		<g>
			<path style="fill:#1E1A4D;" d="M150.145,82.918c1.179,0.03,2.245-0.396,3.172-1.016c0.245-0.152,0.44-0.316,0.696-0.508
				c0.309-0.215,0.72-0.247,1.038-0.099c0.528,0.328,1.016,0.519,1.587,0.726c-0.297,0.004-0.59-0.036-0.887-0.087
				c-0.277-0.051-0.614-0.198-0.831-0.277c-0.228-0.053-0.466-0.02-0.627,0.119c-0.202,0.168-0.453,0.382-0.7,0.543
				c-0.507,0.329-1.068,0.595-1.669,0.707C151.331,83.138,150.7,83.146,150.145,82.918z"/>
		</g>
		<g>
			<path style="fill:#1E1A4D;" d="M144.466,74.554c0.594,0.541,1.101,1.117,1.624,1.679c0.517,0.572,1.027,1.115,1.601,1.674
				c-0.392-0.105-0.746-0.31-1.076-0.539c-0.332-0.229-0.62-0.509-0.894-0.798C145.195,75.975,144.738,75.314,144.466,74.554z"/>
		</g>
		<polygon style="fill:#E8BA3A;" points="186.056,57.841 188.181,62.097 192.892,62.758 189.502,66.095 190.328,70.779 
			186.107,68.586 181.908,70.819 182.689,66.127 179.267,62.824 183.971,62.117 		"/>
		<g>
			<path style="fill:#E8BA3A;" d="M168.865,74.506c1.173,0.684,2.156,1.504,3.141,2.323c0.976,0.839,1.906,1.658,2.891,2.586
				c-0.678-0.098-1.311-0.365-1.898-0.685c-0.592-0.318-1.126-0.719-1.639-1.139C170.363,76.719,169.465,75.731,168.865,74.506z"/>
		</g>
		<g>
			<path style="fill:#E8BA3A;" d="M198.88,78.755c0.526-0.423,0.963-0.879,1.423-1.321l1.356-1.342
				c0.464-0.437,0.917-0.889,1.406-1.315c0.483-0.433,0.98-0.857,1.554-1.231c-0.513,1.261-1.318,2.326-2.263,3.263
				c-0.48,0.459-0.999,0.888-1.576,1.239C200.209,78.393,199.576,78.713,198.88,78.755z"/>
		</g>
		<g>
			<path style="fill:#E8BA3A;" d="M213.337,50.165c0.249,0.919,0.193,1.809,0.066,2.683c-0.157,0.868-0.388,1.727-0.917,2.507
				c-0.245-0.95-0.193-1.821-0.066-2.683C212.577,51.816,212.804,50.976,213.337,50.165z"/>
		</g>
		<g>
			<path style="fill:#E8BA3A;" d="M158.891,51.691c0.523,0.794,0.773,1.613,0.974,2.449c0.17,0.843,0.293,1.688,0.15,2.631
				c-0.62-0.725-0.924-1.563-1.126-2.415C158.717,53.497,158.635,52.611,158.891,51.691z"/>
		</g>
		<g>
			<path style="fill:#E8BA3A;" d="M211.931,48.896c-3.188,0.807-6.449,1.281-9.71,1.677c-3.264,0.398-6.546,0.613-9.828,0.766
				c-3.284,0.117-6.571,0.162-9.855,0.057c-1.642-0.04-3.282-0.135-4.922-0.205c-1.638-0.126-3.275-0.241-4.909-0.408l9.833-0.156
				c3.273-0.076,6.543-0.148,9.811-0.287c3.268-0.127,6.533-0.315,9.797-0.529c1.632-0.11,3.264-0.238,4.892-0.402
				C208.675,49.28,210.301,49.095,211.931,48.896z"/>
		</g>
		<g>
			<path style="fill:#E8BA3A;" d="M183.996,82.286c0.781-0.247,1.452-0.327,2.159-0.368c0.351-0.008,0.703-0.016,1.065,0.019
				c0.362,0.03,0.731,0.078,1.129,0.216c-0.642,0.529-1.396,0.713-2.15,0.763c-0.379,0.005-0.761-0.014-1.136-0.113
				C184.69,82.71,184.314,82.566,183.996,82.286z"/>
		</g>
		<g>
			<path style="fill:#E8BA3A;" d="M187.825,83.191c0.078,0.913,0.184,1.799,0.441,2.587c0.277,0.8,0.688,1.374,1.439,1.572
				c0.763,0.277,1.626,0.359,2.521,0.508c0.448,0.072,0.911,0.163,1.364,0.342c0.444,0.174,0.897,0.519,1.01,0.982
				c-0.316-0.348-0.719-0.472-1.137-0.513c-0.417-0.051-0.854-0.035-1.3-0.039c-0.89,0.008-1.842-0.023-2.785-0.337
				c-0.45-0.137-1.008-0.476-1.312-0.913c-0.316-0.444-0.49-0.936-0.562-1.419C187.358,84.995,187.49,84.051,187.825,83.191z"/>
		</g>
		<path style="fill:#F7C5AA;" d="M140.599,439.302c0,0,2.594,8.404,8.632,2.469L140.599,439.302z"/>
		<g>
			<g>
				<path style="fill:#6069A3;" d="M121.165,449.652c0.64-0.47,1.375-0.801,2.124-1.069c0.752-0.27,1.536-0.442,2.329-0.551
					c0.795-0.087,1.598-0.138,2.399-0.092c0.802,0.033,1.595,0.164,2.382,0.314l-0.274,0.204c0.019-0.78-0.158-1.62-0.594-2.253
					c-0.212-0.324-0.512-0.572-0.845-0.754c-0.329-0.198-0.722-0.271-1.11-0.334l-0.025-0.004c-0.128-0.021-0.216-0.141-0.195-0.27
					c0.014-0.087,0.074-0.155,0.15-0.183c0.976-0.364,1.969-0.554,2.985-0.628c1.013-0.069,2.034,0.031,3.018,0.256l-0.166,0.097
					c0.135-0.504,0.066-1.097-0.167-1.601c-0.247-0.504-0.646-0.935-1.11-1.279c0.246,0.151,0.49,0.312,0.702,0.515
					c0.216,0.199,0.398,0.434,0.553,0.688c0.29,0.52,0.436,1.136,0.295,1.759c-0.015,0.069-0.082,0.113-0.151,0.1l-0.015-0.003
					c-0.966-0.173-1.953-0.206-2.925-0.109c-0.967,0.084-1.948,0.295-2.832,0.642l-0.07-0.457c0.441,0.062,0.894,0.142,1.299,0.372
					c0.409,0.208,0.766,0.531,1.013,0.915c0.254,0.38,0.421,0.805,0.521,1.237c0.098,0.436,0.144,0.866,0.121,1.325
					c-0.006,0.122-0.111,0.216-0.233,0.21l-0.033-0.004l-0.009-0.002c-0.764-0.159-1.534-0.289-2.312-0.345
					c-0.777-0.078-1.559-0.062-2.339-0.01C124.105,448.502,122.541,448.86,121.165,449.652z"/>
			</g>
			<g>
				<path style="fill:#6069A3;" d="M136.369,442.719c-1.046-0.055-2.091-0.064-3.13-0.011c-1.038,0.048-2.075,0.164-3.062,0.429
					l0.12-0.328c0.797,1.138,1.515,2.323,2.007,3.648c0.046,0.124-0.017,0.262-0.141,0.308c-0.031,0.012-0.064,0.016-0.095,0.015
					l-0.012-0.001c-1.023-0.055-2.05-0.132-3.076-0.149c-1.023-0.013-2.056-0.025-3.052,0.104l0.132-0.218
					c0.232,0.854,0.467,1.704,0.661,2.567c0.189,0.862,0.395,1.725,0.482,2.605c-0.181-0.863-0.431-1.708-0.686-2.551l-0.785-2.521
					c-0.028-0.09,0.022-0.185,0.112-0.213l0.02-0.005c1.042-0.212,2.084-0.223,3.121-0.223c1.038,0.01,2.072,0.028,3.107,0.119
					l-0.248,0.322c-0.442-1.255-1.135-2.448-1.89-3.56l-0.007-0.01c-0.064-0.094-0.04-0.223,0.055-0.287
					c0.022-0.015,0.047-0.026,0.072-0.031c1.048-0.227,2.108-0.289,3.16-0.286C134.286,442.462,135.335,442.543,136.369,442.719z"/>
			</g>
			<g>
				<path style="fill:#6069A3;" d="M132.722,440.635c0.406-0.236,0.898-0.252,1.355-0.222c0.463,0.031,0.916,0.144,1.345,0.3
					c0.429,0.16,0.842,0.355,1.227,0.597c0.385,0.241,0.752,0.507,1.08,0.825c-0.864-0.294-1.656-0.667-2.477-0.952
					c-0.404-0.16-0.819-0.276-1.234-0.392C133.599,440.689,133.173,440.603,132.722,440.635z"/>
			</g>
			<g>
				<path style="fill:#6069A3;" d="M120.746,450.477c0.406-0.236,0.898-0.252,1.355-0.222c0.463,0.031,0.916,0.144,1.345,0.3
					c0.429,0.16,0.842,0.355,1.227,0.597c0.385,0.241,0.752,0.507,1.08,0.825c-0.864-0.294-1.656-0.667-2.477-0.952
					c-0.405-0.16-0.819-0.276-1.234-0.392C121.623,450.531,121.197,450.445,120.746,450.477z"/>
			</g>
		</g>
		<g>
			<path style="fill:#1E1A4D;" d="M246.996,437.313c0,0,29.113,19.734,28.294,25.025c-0.82,5.292-17.309-0.431-24.945-4.704
				c-2.043-1.143-6.632-1.706-10.45-1.981c-3.714-0.268-6.892-2.754-8.073-6.285c-0.807-2.412,2.137-5.279,1.595-8.001
				L246.996,437.313z"/>
			<path style="fill:#F7C5AA;" d="M241.908,438.804c0,0-2.381,8.428-8.476,2.551L241.908,438.804z"/>
			<g>
				<g>
					<path style="fill:#6069A3;" d="M261.51,448.98c-1.383-0.779-2.95-1.122-4.499-1.267c-0.78-0.044-1.563-0.053-2.339,0.032
						c-0.777,0.063-1.546,0.2-2.309,0.367l-0.007,0.002c-0.119,0.026-0.238-0.05-0.264-0.169l-0.005-0.034
						c-0.028-0.459,0.014-0.888,0.108-1.326c0.097-0.433,0.26-0.859,0.51-1.242c0.243-0.386,0.598-0.713,1.005-0.925
						c0.402-0.234,0.855-0.319,1.295-0.385l-0.066,0.458c-0.887-0.339-1.87-0.54-2.838-0.614c-0.973-0.088-1.959-0.046-2.924,0.137
						l-0.015,0.003c-0.069,0.013-0.136-0.031-0.152-0.099c-0.146-0.622-0.007-1.239,0.278-1.762
						c0.153-0.256,0.332-0.492,0.546-0.693c0.209-0.206,0.452-0.369,0.697-0.522c-0.461,0.348-0.856,0.783-1.098,1.289
						c-0.228,0.505-0.292,1.099-0.152,1.602l-0.167-0.096c0.982-0.234,2.002-0.345,3.015-0.285c1.016,0.064,2.011,0.244,2.991,0.599
						c0.122,0.044,0.185,0.179,0.141,0.302c-0.03,0.082-0.101,0.138-0.182,0.152l-0.026,0.004c-0.387,0.066-0.779,0.143-1.106,0.344
						c-0.332,0.185-0.629,0.436-0.838,0.762c-0.43,0.638-0.599,1.48-0.572,2.259l-0.276-0.201c0.786-0.158,1.577-0.296,2.379-0.337
						c0.801-0.054,1.604-0.011,2.4,0.069c0.794,0.101,1.581,0.266,2.335,0.528C260.128,448.193,260.865,448.516,261.51,448.98z"/>
				</g>
				<g>
					<path style="fill:#6069A3;" d="M246.24,442.192c1.032-0.185,2.08-0.277,3.132-0.308c1.052-0.013,2.112,0.038,3.162,0.256
						c0.112,0.023,0.184,0.133,0.16,0.244c-0.005,0.027-0.016,0.051-0.03,0.072l-0.008,0.011c-0.745,1.12-1.426,2.319-1.856,3.578
						l-0.251-0.32c1.035-0.101,2.068-0.129,3.106-0.148c1.037-0.01,2.078-0.01,3.123,0.193c0.093,0.016,0.155,0.104,0.139,0.197
						l-0.005,0.02l-0.761,2.529c-0.246,0.846-0.488,1.693-0.661,2.558c0.078-0.881,0.276-1.746,0.457-2.61
						c0.186-0.864,0.412-1.717,0.636-2.573l0.134,0.216c-0.996-0.12-2.03-0.098-3.052-0.075c-1.025,0.027-2.052,0.114-3.074,0.179
						l-0.011,0.001c-0.132,0.008-0.246-0.092-0.255-0.224c-0.002-0.034,0.003-0.067,0.014-0.097
						c0.479-1.329,1.186-2.521,1.972-3.667l0.123,0.327c-0.99-0.255-2.028-0.362-3.066-0.4
						C248.331,442.109,247.286,442.127,246.24,442.192z"/>
				</g>
				<g>
					<path style="fill:#6069A3;" d="M249.867,440.073c-0.451-0.028-0.876,0.063-1.294,0.168c-0.414,0.12-0.827,0.24-1.23,0.403
						c-0.819,0.293-1.607,0.674-2.468,0.976c0.326-0.321,0.69-0.591,1.072-0.835c0.382-0.246,0.793-0.445,1.221-0.609
						c0.428-0.16,0.879-0.278,1.342-0.313C248.967,439.83,249.459,439.842,249.867,440.073z"/>
				</g>
				<g>
					<path style="fill:#6069A3;" d="M261.937,449.8c-0.451-0.028-0.876,0.063-1.294,0.168c-0.414,0.12-0.827,0.24-1.23,0.403
						c-0.818,0.293-1.607,0.674-2.468,0.976c0.326-0.321,0.69-0.591,1.072-0.835c0.382-0.246,0.793-0.445,1.221-0.609
						c0.428-0.16,0.879-0.278,1.342-0.313C261.037,449.557,261.529,449.569,261.937,449.8z"/>
				</g>
			</g>
		</g>
		<g>
			<path style="fill:#C48D55;" d="M174.291,110.161c0.308-1.318,0.769-2.601,1.35-3.838c0.624-1.195,1.338-2.465,2.682-3.163
				c0.339-0.158,0.721-0.253,1.111-0.252c0.391,0.008,0.77,0.14,1.078,0.252c0.651,0.227,1.286,0.516,1.893,0.808
				c0.609,0.293,1.184,0.55,1.795,0.592c0.61,0.056,1.252-0.051,1.888-0.198c0.64-0.134,1.279-0.335,1.915-0.536
				c0.645-0.215,1.367-0.387,2.076-0.405c1.441-0.053,2.792,0.425,4.048,0.81c0.635,0.184,1.274,0.314,1.909,0.276
				c0.635-0.036,1.252-0.251,1.807-0.597c1.132-0.673,2.013-1.734,2.849-2.787c-0.701,1.151-1.517,2.269-2.65,3.094
				c-0.568,0.405-1.25,0.682-1.964,0.76c-0.714,0.079-1.427-0.033-2.094-0.19c-1.336-0.317-2.59-0.768-3.876-0.685
				c-0.644,0.031-1.247,0.183-1.878,0.403c-0.648,0.217-1.296,0.434-1.976,0.589c-0.678,0.144-1.388,0.257-2.126,0.179
				c-0.747-0.066-1.423-0.391-2.02-0.69c-0.605-0.304-1.197-0.584-1.818-0.813c-0.617-0.265-1.157-0.322-1.734-0.082
				c-1.13,0.498-1.934,1.676-2.591,2.808C175.287,107.648,174.76,108.894,174.291,110.161z"/>
		</g>
		<g>
			<path style="fill:#C48D55;" d="M185.648,103.301c0.683-1.192,1.752-2.26,3.198-2.671c0.709-0.207,1.539-0.124,2.197,0.097
				c0.664,0.197,1.313,0.398,1.958,0.544c0.643,0.152,1.289,0.218,1.921,0.157c0.633-0.062,1.235-0.299,1.803-0.616
				c1.135-0.661,2.055-1.706,2.921-2.774c-0.62,1.229-1.431,2.409-2.618,3.247c-0.583,0.424-1.281,0.725-2.017,0.835
				c-0.736,0.111-1.476,0.024-2.171-0.122c-0.697-0.152-1.355-0.382-2.006-0.583c-0.636-0.236-1.222-0.308-1.859-0.201
				c-0.626,0.099-1.234,0.385-1.784,0.759C186.627,102.337,186.119,102.796,185.648,103.301z"/>
		</g>
		<g>
			<g>
				<path style="fill:#A86E49;" d="M173.215,112.262c-0.609-0.151-0.956-0.17-1.376-0.251c-0.201-0.053-0.418-0.077-0.646-0.155
					c-0.232-0.063-0.478-0.14-0.767-0.299c0.417-0.489,1.016-0.625,1.602-0.528c0.289,0.066,0.58,0.184,0.806,0.4
					C173.058,111.637,173.239,111.928,173.215,112.262z"/>
			</g>
			<g>
				<path style="fill:#A86E49;" d="M173.215,112.431c-0.776,0.148-1.281,0.357-1.837,0.61c-0.281,0.111-0.547,0.274-0.852,0.406
					c-0.298,0.148-0.608,0.303-1,0.426c0.079-0.398,0.263-0.74,0.511-1.035c0.251-0.292,0.562-0.539,0.926-0.707
					c0.367-0.155,0.773-0.253,1.181-0.21C172.544,111.958,172.955,112.107,173.215,112.431z"/>
			</g>
		</g>
	</g>
	<g>
		<path style="fill:#6069A3;" d="M382.3,91.762c0,0,5.825-3.512,6.602-6.813l2.913,3.406c0,0-4.078,5.841-8.155,6.848L382.3,91.762z
			"/>
		<path style="fill:#ED82A8;" d="M397.83,60.353c0,0,3.329-2.007,3.772-3.893l1.664,1.946c0,0-2.33,3.338-4.66,3.913L397.83,60.353z
			"/>
		<path style="fill:#ED82A8;" d="M375.428,177.268c0,0-1.477-3.595-3.273-4.321l2.177-1.349c0,0,2.944,2.811,3.158,5.201
			L375.428,177.268z"/>
		<path style="fill:#6069A3;" d="M374.813,61.341c0,0-0.792,3.206,0.076,4.606l-2.17-0.168c0,0-0.608-3.405,0.445-5.151
			L374.813,61.341z"/>
		<path style="fill:#6069A3;" d="M345.327,190.451c0,0-2.12,5.302-0.967,7.905l-3.675-0.804c0,0-0.23-5.975,1.989-8.715
			L345.327,190.451z"/>
		<path style="fill:#6069A3;" d="M363.855,149.379c0,0-1.111,4.498,0.107,6.462l-3.044-0.236c0,0-0.853-4.777,0.624-7.227
			L363.855,149.379z"/>
		<path style="fill:#6069A3;" d="M251.153,33.177c0,0-1.111,4.498,0.107,6.462l-3.044-0.236c0,0-0.853-4.777,0.624-7.227
			L251.153,33.177z"/>
		<path style="fill:#6069A3;" d="M332.841,46.591c0,0-3.677-5.722-6.999-6.404l3.322-3.009c0,0,5.955,3.909,7.079,7.956
			L332.841,46.591z"/>
		<path style="fill:#ED82A8;" d="M352.087,112.592c0,0,4.899,4.719,8.288,4.616l-2.537,3.694c0,0-6.696-2.429-8.724-6.107
			L352.087,112.592z"/>
		<path style="fill:#ED82A8;" d="M288.955,72.836c0,0,4.899,4.719,8.288,4.616l-2.537,3.694c0,0-6.696-2.429-8.724-6.107
			L288.955,72.836z"/>
		<path style="fill:#ED82A8;" d="M383.644,145.426c0,0,0.79-6.756-1.344-9.391l4.477-0.217c0,0,2.121,6.8,0.421,10.641
			L383.644,145.426z"/>
		<path style="fill:#6069A3;" d="M129.357,102.548c0,0-6.463,2.121-7.957,5.165l-2.078-3.971c0,0,5.28-4.782,9.479-4.852
			L129.357,102.548z"/>
		<path style="fill:#ED82A8;" d="M247.786,180.669c0,0-6.463,2.121-7.957,5.165l-2.078-3.971c0,0,5.28-4.782,9.479-4.852
			L247.786,180.669z"/>
		<path style="fill:#ED82A8;" d="M285.373,43.487c0,0-6.463,2.121-7.957,5.165l-2.078-3.971c0,0,5.28-4.782,9.479-4.852
			L285.373,43.487z"/>
		<path style="fill:#6069A3;" d="M83.699,175.593c0,0,6.457,2.139,9.469,0.581l-0.692,4.428c0,0-7.088,0.704-10.506-1.737
			L83.699,175.593z"/>
		<path style="fill:#6069A3;" d="M221.204,198.444c0,0,6.457,2.139,9.469,0.581l-0.692,4.428c0,0-7.088,0.704-10.507-1.737
			L221.204,198.444z"/>
		<path style="fill:#6069A3;" d="M50.231,74.439c0,0,6.457,2.139,9.469,0.581l-0.692,4.428c0,0-7.088,0.704-10.506-1.737
			L50.231,74.439z"/>
		<path style="fill:#ED82A8;" d="M100.984,202.712c0,0-0.475,3.858,0.735,5.371l-2.559,0.108c0,0-1.188-3.893-0.203-6.082
			L100.984,202.712z"/>
		<path style="fill:#ED82A8;" d="M85.223,89.516c0,0-0.475,3.858,0.735,5.371l-2.559,0.108c0,0-1.188-3.893-0.203-6.082
			L85.223,89.516z"/>
		<path style="fill:#ED82A8;" d="M60.541,143.37c0,0-0.475,3.858,0.735,5.371l-2.559,0.108c0,0-1.188-3.893-0.203-6.082
			L60.541,143.37z"/>
		<path style="fill:#6069A3;" d="M107.543,58.212c0,0-4.19-5.358-7.56-5.73l3.029-3.303c0,0,6.29,3.342,7.783,7.268L107.543,58.212z
			"/>
		<path style="fill:#ED82A8;" d="M88.11,134.481c0,0-6.736,0.942-8.747,3.673l-1.341-4.276c0,0,6.044-3.77,10.189-3.095
			L88.11,134.481z"/>
		<path style="fill:#ED82A8;" d="M116.675,160.262c0,0,2.319-6.394,0.847-9.449l4.407,0.816c0,0,0.504,7.105-2.032,10.453
			L116.675,160.262z"/>
	</g>
</g>
</svg>
